<svg xmlns="http://www.w3.org/2000/svg" viewBox="0 0 430.87166 117.84565"><defs><style>.cls-1{fill:#e43037;}.cls-2{fill:#b72e32;}.cls-3{fill:#fff;}.cls-4{fill:#b4b4b4;stroke:#b4b4b4;stroke-miterlimit:10;stroke-width:6px;}.cls-5{fill:#3c5afd;}.cls-6{fill:#b3b3b3;}.cls-7{fill:#a6120d;}.cls-8{fill:#dd1b16;}.cls-9{fill:#f2f2f2;}</style></defs><title>my_angular_nativescript</title><g id="Layer_3" data-name="Layer 3"><g id="Page-1"><polygon id="Polygon" class="cls-1" points="378.815 0.313 378.815 117.846 333.733 91.489 326.793 19.169 378.815 0.313"/><polygon id="Polygon-Copy" class="cls-2" points="378.85 0.313 378.85 117.846 423.932 91.489 430.872 19.169 378.85 0.313"/><path id="Shape" class="cls-3" d="M410.662,37.91131a14.41273,14.41273,0,0,1,4.236,10.22318V77.05524a14.464,14.464,0,0,1-14.46,14.46H371.51782a14.46554,14.46554,0,0,1-14.46-14.45981V48.13472a14.46593,14.46593,0,0,1,14.46-14.46027H400.4379A14.41791,14.41791,0,0,1,410.662,37.91131Zm-3.989,23.272a4.80071,4.80071,0,0,1-1.41892-3.404V48.13472a4.79867,4.79867,0,0,0-4.81617-4.815h-4.81527V67.41093L376.334,43.31922h-4.81617a4.79867,4.79867,0,0,0-4.815,4.815v9.645a4.83179,4.83179,0,0,1-4.82882,4.81527,4.83334,4.83334,0,0,1,4.8286,4.81617v9.64455a4.79867,4.79867,0,0,0,4.815,4.815h4.8164V57.77948L395.62263,81.871h4.81527a4.79867,4.79867,0,0,0,4.81595-4.815v-9.645a4.83334,4.83334,0,0,1,4.82883-4.81617,4.83921,4.83921,0,0,1-3.40946-1.41123Z" transform="translate(-7.12834 -8)"/></g></g><g id="Layer_5" data-name="Layer 5"><line class="cls-4" x1="138.87166" y1="44" x2="138.87166" y2="75"/><line class="cls-4" x1="153.87166" y1="59" x2="122.87166" y2="59"/></g><g id="Layer_6" data-name="Layer 6"><line class="cls-4" x1="310.87166" y1="64" x2="284.87166" y2="64"/><line class="cls-4" x1="310.87166" y1="53" x2="284.87166" y2="53"/></g><g id="Layer_4" data-name="Layer 4"><path class="cls-5" d="M258.97,28.01A20.44559,20.44559,0,0,0,244.48,22h-41a20.50237,20.50237,0,0,0-20.49,20.5V83.49a20.50237,20.50237,0,0,0,20.49,20.5h41a20.51949,20.51949,0,0,0,20.5-20.5V42.5A20.41045,20.41045,0,0,0,258.97,28.01ZM253.32,65a6.82838,6.82838,0,0,0-2.02,4.82V83.49a6.7946,6.7946,0,0,1-6.82,6.83h-6.83L210.31,56.17V90.32h-6.83a6.7947,6.7947,0,0,1-6.82-6.83V69.82a6.86265,6.86265,0,0,0-6.85-6.83,6.84549,6.84549,0,0,0,6.85-6.82V42.5a6.7946,6.7946,0,0,1,6.82-6.83h6.83l27.34,34.15V35.67h6.83a6.79449,6.79449,0,0,1,6.82,6.83V56.17a6.86281,6.86281,0,0,0,6.85,6.82A6.86727,6.86727,0,0,0,253.32,65Z" transform="translate(-7.12834 -8)"/><path class="cls-3" d="M258.15,62.99a6.8801,6.8801,0,0,0-6.85,6.83V83.49a6.7946,6.7946,0,0,1-6.82,6.83h-6.83L210.31,56.17V90.32h-6.83a6.7947,6.7947,0,0,1-6.82-6.83V69.82a6.86265,6.86265,0,0,0-6.85-6.83,6.84549,6.84549,0,0,0,6.85-6.82V42.5a6.7946,6.7946,0,0,1,6.82-6.83h6.83l27.34,34.15V35.67h6.83a6.79449,6.79449,0,0,1,6.82,6.83V56.17a6.86281,6.86281,0,0,0,6.85,6.82Z" transform="translate(-7.12834 -8)"/></g><g id="Layer_2" data-name="Layer 2"><path class="cls-6" d="M61.93556,8,7.12834,27.288l8.661,71.80625L61.9935,124.48885l46.44283-25.73873,8.65755-71.80365Z" transform="translate(-7.12834 -8)"/><path class="cls-7" d="M111.62729,31.09645,61.80758,14.10737V118.42169l41.75107-23.10683,8.06822-64.2184Z" transform="translate(-7.12834 -8)"/><path class="cls-8" d="M13.27852,31.40258l7.42181,64.21927,41.10639,22.79984V14.10564L13.279,31.40215Z" transform="translate(-7.12834 -8)"/><path class="cls-9" d="M75.52138,69.63882l-13.7138,6.41306h-14.454L40.55912,93.04659l-12.63761.23348L61.80758,17.89545l13.7138,51.7438ZM74.1957,66.41024,61.89881,42.06594l-10.087,23.92533h9.99533l12.38856.41941Z" transform="translate(-7.12834 -8)"/><path class="cls-6" d="M61.80714,17.895l.0908,24.17092L73.343,66.00986h-11.51l-.02594,10.02646,15.91592.01513,7.43867,17.23122,12.09238.224L61.80714,17.895Z" transform="translate(-7.12834 -8)"/></g></svg>