<svg xmlns="http://www.w3.org/2000/svg" viewBox="0 0 566.33997 190.075"><defs><style>.cls-1{fill:#ed1e33;}.cls-1,.cls-2,.cls-3,.cls-5,.cls-6,.cls-7{stroke:#000;stroke-miterlimit:10;stroke-width:2px;}.cls-2,.cls-4{fill:#fff;}.cls-3{fill:#154fce;}.cls-5{fill:#269245;}.cls-6{fill:#333;}.cls-7{fill:#ffe001;}</style></defs><title>my_flags</title><g id="Layer_7" data-name="Layer 7"><path class="cls-1" d="M350.97,165l-54.23,31.31a5.52372,5.52372,0,0,1-5.48,0L237.03,165Z" transform="translate(-10.83002 -7.96248)"/><path class="cls-2" d="M376.17,147v.28a5.476,5.476,0,0,1-2.74,4.75L350.97,165H237.03l-22.46-12.97a5.476,5.476,0,0,1-2.74-4.75V147Z" transform="translate(-10.83002 -7.96248)"/><rect class="cls-1" x="201" y="122.03752" width="164.33997" height="17"/><rect class="cls-2" x="201" y="105.03752" width="164.33997" height="17"/><path class="cls-3" d="M287,12.15V113H211.83V58.72a5.4761,5.4761,0,0,1,2.74-4.75Z" transform="translate(-10.83002 -7.96248)"/><g id="Layer_8" data-name="Layer 8"><g id="Layer_9" data-name="Layer 9"><circle class="cls-4" cx="265.16998" cy="34.03752" r="2.5"/><circle class="cls-4" cx="265.16998" cy="49.03752" r="2.5"/><circle class="cls-4" cx="265.16998" cy="64.03752" r="2.5"/><circle class="cls-4" cx="265.16998" cy="79.03752" r="2.5"/><circle class="cls-4" cx="265.16998" cy="94.03752" r="2.5"/><circle class="cls-4" cx="250.16998" cy="34.03752" r="2.5"/><circle class="cls-4" cx="250.16998" cy="49.03752" r="2.5"/><circle class="cls-4" cx="250.16998" cy="64.03752" r="2.5"/><circle class="cls-4" cx="250.16998" cy="79.03752" r="2.5"/><circle class="cls-4" cx="250.16998" cy="94.03752" r="2.5"/></g><g id="Layer_11" data-name="Layer 11"><circle class="cls-4" cx="234.16998" cy="49.03752" r="2.5"/><circle class="cls-4" cx="234.16998" cy="64.03752" r="2.5"/><circle class="cls-4" cx="234.16998" cy="79.03752" r="2.5"/><circle class="cls-4" cx="234.16998" cy="94.03752" r="2.5"/><circle class="cls-4" cx="219.16998" cy="49.03752" r="2.5"/><circle class="cls-4" cx="219.16998" cy="64.03752" r="2.5"/><circle class="cls-4" cx="219.16998" cy="79.03752" r="2.5"/><circle class="cls-4" cx="219.16998" cy="94.03752" r="2.5"/><circle class="cls-4" cx="211.16998" cy="57.03752" r="2.5"/><circle class="cls-4" cx="211.16998" cy="72.03752" r="2.5"/><circle class="cls-4" cx="211.16998" cy="87.03752" r="2.5"/></g><g id="Layer_10" data-name="Layer 10"><circle class="cls-4" cx="257.16998" cy="42.03752" r="2.5"/><circle class="cls-4" cx="257.16998" cy="57.03752" r="2.5"/><circle class="cls-4" cx="257.16998" cy="71.03752" r="2.5"/><circle class="cls-4" cx="257.16998" cy="86.03752" r="2.5"/><circle class="cls-4" cx="242.16998" cy="42.03752" r="2.5"/><circle class="cls-4" cx="242.16998" cy="57.03752" r="2.5"/><circle class="cls-4" cx="242.16998" cy="71.03752" r="2.5"/><circle class="cls-4" cx="242.16998" cy="86.03752" r="2.5"/><circle class="cls-4" cx="227.16998" cy="42.03752" r="2.5"/><circle class="cls-4" cx="227.16998" cy="57.03752" r="2.5"/><circle class="cls-4" cx="227.16998" cy="71.03752" r="2.5"/><circle class="cls-4" cx="227.16998" cy="86.03752" r="2.5"/></g></g><rect class="cls-1" x="276.16998" y="88.03752" width="89.16998" height="17"/><rect class="cls-2" x="276.16998" y="71.03752" width="89.16998" height="17"/><rect class="cls-1" x="276.16998" y="54.03752" width="89.16998" height="17"/><path class="cls-2" d="M376.17,58.72V62H287V45h70.89l15.54,8.97A5.4761,5.4761,0,0,1,376.17,58.72Z" transform="translate(-10.83002 -7.96248)"/><path class="cls-1" d="M357.89,45H287V12.15l4.26-2.46a5.52342,5.52342,0,0,1,5.48,0Z" transform="translate(-10.83002 -7.96248)"/></g><g id="Layer_4" data-name="Layer 4"><path class="cls-1" d="M576.17,58.72V77.5H411.83V58.72a5.4761,5.4761,0,0,1,2.74-4.75L491.26,9.69a5.52342,5.52342,0,0,1,5.48,0l76.69,44.28A5.4761,5.4761,0,0,1,576.17,58.72Z" transform="translate(-10.83002 -7.96248)"/><rect class="cls-2" x="401" y="69.53752" width="164.33997" height="51"/><path class="cls-5" d="M576.17,128.5v18.78a5.476,5.476,0,0,1-2.74,4.75l-76.69,44.28a5.52372,5.52372,0,0,1-5.48,0l-76.69-44.28a5.476,5.476,0,0,1-2.74-4.75V128.5Z" transform="translate(-10.83002 -7.96248)"/></g><g id="Layer_2" data-name="Layer 2"><path class="cls-6" d="M176.17,58.72V77.5H11.83V58.72a5.4761,5.4761,0,0,1,2.74-4.75L91.26,9.69a5.52342,5.52342,0,0,1,5.48,0l76.69,44.28A5.4761,5.4761,0,0,1,176.17,58.72Z" transform="translate(-10.83002 -7.96248)"/><rect class="cls-1" x="1" y="69.53752" width="164.33997" height="51"/><path class="cls-7" d="M176.17,128.5v18.78a5.476,5.476,0,0,1-2.74,4.75L96.74,196.31a5.52372,5.52372,0,0,1-5.48,0L14.57,152.03a5.476,5.476,0,0,1-2.74-4.75V128.5Z" transform="translate(-10.83002 -7.96248)"/></g></svg>