<svg width="48" height="57" xmlns="http://www.w3.org/2000/svg">
 <!-- Created with Method Draw - http://github.com/duopixel/Method-Draw/ -->
 <g>
  <title>Layer 1</title>
  <ellipse stroke="#000" ry="21.750246" rx="21.750245" id="svg_1" cy="24.083586" cx="23.999999" stroke-width="1.5" fill="#000000"/>
  <rect stroke="#000" transform="rotate(-45.12268829345703 24,39.083362579345696) " id="svg_2" height="21.849976" width="22.379075" y="28.158374" x="12.810462" stroke-width="1.5" fill="#000000"/>
  <style transform="matrix(1.0487101371020344,0,0,1.0487101371020344,0,0) " type="text/css">.st0{fill:#FFFFFF;}
	.st1{fill:#BDBDBD;}
	.st2{clip-path:url(#SVGID_2_);}</style>
  <g stroke="null" transform="matrix(0.198040197498475,0,0,0.1966896999121262,44.12335435326949,63.40456078697729) " id="svg_12">
   <polygon stroke="null" id="svg_30" points="-101.61251890659332,-269.8512268066406 -163.71245634555817,-233.9512481689453 -163.71245634555817,-162.2512664794922 -101.61251890659332,-126.35127258300781 -39.41250669956207,-162.2512664794922 -39.41250669956207,-233.9512481689453 " class="st1"/>
   <path stroke="null" id="svg_31" d="m-101.612485,-122.851242l-65.1,-37.7l0,-75.2l65.1,-37.6l65.1,37.6l0,75.2l-65.1,37.7zm-59.1,-41.1l59.1,34.1l59.1,-34.1l0,-68.3l-59.1,-34.1l-59.1,34.1l0,68.3z" class="st0"/>
   <rect stroke="null" id="svg_32" height="143.5" width="4" class="st0" transform="matrix(0.5,-0.866,0.866,0.5,-164.4921,170.1806) " y="-201.414351" x="348.370285"/>
   <rect stroke="null" id="svg_33" height="4" width="143.5" class="st0" transform="matrix(0.8661,-0.4999,0.4999,0.8661,-105.0305,63.0365) " y="-226.482905" x="61.791374"/>
   <rect stroke="null" id="svg_34" height="143.5" width="4" class="st0" y="-269.851242" x="-103.612485"/>
   <polygon stroke="null" points="-101.61251890659332,-240.45123291015625 -138.31247770786285,-219.25125122070312 -138.31247770786285,-176.9512481689453 -101.61251890659332,-155.7512664794922 -64.91247618198395,-176.9512481689453 -64.91247618198395,-219.25125122070312 " id="svg_13"/>
   <rect stroke="null" id="svg_35" height="42.4" width="4" class="st0" transform="matrix(0.5,-0.866,0.866,0.5,-164.4922,148.9901) " y="-161.414351" x="330.070285"/>
   <rect stroke="null" id="svg_36" height="4" width="42.4" class="st0" transform="matrix(0.8661,-0.4999,0.4999,0.8661,-97.276,70.792) " y="-237.082905" x="130.691374"/>
   <rect stroke="null" id="svg_37" height="42.4" width="4" class="st0" y="-198.151242" x="-103.612485"/>
  </g>
 </g>
</svg>